{"title":"Due Date TS XViD - IMAGiNE","uid":6008539,"size":1066199992,"categoryP":"video","categoryS":"movies","magnet":"?xt=urn:btih:aa8c7e9f32bc8f9a18bf911ef0f435bb64502935&amp;dn=Due+Date+TS+XViD+-+IMAGiNE&amp;tr=udp%3A%2F%2Ftracker.openbittorrent.com%3A80&amp;tr=udp%3A%2F%2Fopen.demonii.com%3A1337&amp;tr=udp%3A%2F%2Ftracker.coppersurfer.tk%3A6969&amp;tr=udp%3A%2F%2Fexodus.desync.com%3A6969","seeders":2,"leechers":0,"uploader":"SAFCukO09","files":75,"time":1291401772,"description":"[center][img]http://www.collider.com/wp-content/uploads/due_date_movie_poster_banner_miles_to_go_01.jpg[/img][/center]\n\n[center] *********** ****    ****      ***      ******** *********** ****    *** **********\n\n          *+*     +*+*+* *+*+*+   *+* *+*   *+*    *+*    *+*     *+*+*   *+* *+*        \n\n          +*+     +*+ +*+*+ +*+  +*+   +*+  +*+           +*+     *+*+*+  +*+ +*+        \n\n          +$+     +$+  +*+  +$+ +$++*++$++* *$*           +$+     +$+ +*+ +$+ +$++*++$  \n\n          +$+     +$+       +$+ +$+     +$+ +$+   +$+$    +$+     +$+  +$+$+$ +$+        \n\n          $+$     $+$       $+$ $+$     $+$ $+$    $+$    $+$     $+$   $+$+$ $+$        \n\n      $$$$$$$$$$$ $$$       $$$ $$$     $$$  $$$$$$$$ $$$$$$$$$$$ $$$    $$$$ $$$$$$$$$$    \n\n                                               \n\n\n\n\n\n\n\n                          Another Fine Release Brought to you from - IMAGiNE                  \n\n                                               \n\n\n\n********************************************************************************************************************                                \n\n                                        Due Date TS XViD - IMAGiNE\n\n********************************************************************************************************************\n\n\n\nRipper ...........: IMAGiNE                                        IMDB Rating.......:7.2/10                            \n\nVideo Codec.......: XVID                                         Release Date......:03/12/10\n\nAudio Codec.......:MP3                                           Theatre Date......:05/11/10\n\nAudio Bitrate.....:128                                              Runtime.......:1h 29mn\n\nSubtitles.........:NIL                                                 Language..........:ENGLISH\n\nResolution...... 672 x 304                                      IMDb URL.......... http://www.imdb.com/title/tt1231583/\n\n\n\n\n\nDETAILS:\n\n\n\nVideo\n\nID                               : 0\n\nFormat                           : MPEG-4 Visual\n\nFormat profile                   : Advanced Simple@L5\n\nFormat settings, BVOP            : Yes\n\nFormat settings, QPel            : No\n\nFormat settings, GMC             : No warppoints\n\nFormat settings, Matrix          : Default (H.263)\n\nMuxing mode                      : Packed bitstream\n\nCodec ID                         : XVID\n\nCodec ID/Hint                    : XviD\n\nDuration                         : 1h 29mn\n\nBit rate                         : 1 421 Kbps\n\nWidth                            : 672 pixels\n\nHeight                           : 304 pixels\n\nDisplay aspect ratio             : 2.2\n\nFrame rate                       : 23.976 fps\n\nResolution                       : 24 bits\n\nColorimetry                      : 4:2:0\n\nScan type                        : Progressive\n\nBits/(Pixel*Frame)               : 0.290\n\nStream size                      : 913 MiB (91%)\n\nWriting library                  : XviD 1.1.2 (UTC 2006-11-01)\n\n\n\nAudio\n\nID                               : 1\n\nFormat                           : MPEG Audio\n\nFormat version                   : Version 1\n\nFormat profile                   : Layer 3\n\nCodec ID                         : 55\n\nCodec ID/Hint                    : MP3\n\nDuration                         : 1h 29mn\n\nBit rate mode                    : Constant\n\nBit rate                         : 128 Kbps\n\nChannel(s)                       : 2 channels\n\nSampling rate                    : 44.1 KHz\n\nResolution                       : 16 bits\n\nStream size                      : 82.3 MiB (8%)\n\nAlignment                        : Split accross interleaves\n\nInterleave, duration             : 42 ms (1.00 video frame)\n\nInterleave, preload duration     : 500 ms\n\n\n\n\n\nSOURCES:\n\n\n\nVIDEO:Russian cam and Spanish cam ......Thanks both\n\nAUDIO:OWN LiNE\n\n\n\nNOTES:\n\n\n\nIMAGiNE bringing you another release..........Due Date\n\n\n\nWell sorry no new video folks.....so this is just our cam release but now muxed with some decent line audio.\n\nAlso our cam release was the full version,becuase we used the russian and spanish releases to make it\n\ncomplete.\n\nVideo wise nothing to special but until a new source comes along nothing we can do :(\n\n\n\nAnyway Enjoy folks :)\n[/center]\n\n[center][img]http://img811.imageshack.us/img811/5083/vlcsnap120649.png[/img][/center]\n[center][img]http://img30.imageshack.us/img30/6776/vlcsnap121268.png[/img][/center]\n[center][img]http://img255.imageshack.us/img255/6691/vlcsnap121751.png[/img][/center]","torrent":{"xt":"urn:btih:aa8c7e9f32bc8f9a18bf911ef0f435bb64502935","amp;dn":"Due+Date+TS+XViD+-+IMAGiNE","amp;tr":["udp%3A%2F%2Ftracker.openbittorrent.com%3A80","udp%3A%2F%2Fopen.demonii.com%3A1337","udp%3A%2F%2Ftracker.coppersurfer.tk%3A6969","udp%3A%2F%2Fexodus.desync.com%3A6969"],"infoHash":"aa8c7e9f32bc8f9a18bf911ef0f435bb64502935","infoHashBuffer":{"type":"Buffer","data":[170,140,126,159,50,188,143,154,24,191,145,30,240,244,53,187,100,80,41,53]},"announce":[],"urlList":[]}}